<?xml version="1.0" encoding="utf-8"?>
<!-- Generator: Adobe Illustrator 24.3.0, SVG Export Plug-In . SVG Version: 6.00 Build 0)  -->
<svg version="1.1" id="Layer_1" xmlns="http://www.w3.org/2000/svg" xmlns:xlink="http://www.w3.org/1999/xlink" x="0px" y="0px"
	 viewBox="0 0 800 800" style="enable-background:new 0 0 800 800;" xml:space="preserve">
<style type="text/css">
	.st0{fill:#FFFFFF;stroke:#FFFFFF;stroke-width:33.3333;stroke-miterlimit:133.3333;}
</style>
<g id="SVGRepo_bgCarrier">
</g>
<g id="SVGRepo_tracerCarrier">
</g>
<g id="SVGRepo_iconCarrier">
	<path class="st0" d="M400,66.7c-183.3,0-333.3,150-333.3,333.3s150,333.3,333.3,333.3s333.3-150,333.3-333.3S583.3,66.7,400,66.7z
		 M563.3,270l-56.7,273.3c-3.3,20-16.7,23.3-30,13.3L390,490c-20,20-40,36.7-43.3,43.3c-6.7,3.3-10,10-16.7,10
		c-10,0-10-6.7-13.3-13.3l-30-100l-90-30c-20-6.7-20-20,3.3-30l340-130C553.3,236.7,570,243.3,563.3,270z M483.3,300l-190,120
		l30,100l6.7-66.7l163.3-146.7C503.3,296.7,496.7,296.7,483.3,300z"/>
</g>
</svg>
