<?xml version="1.0" encoding="utf-8"?>
<!-- Generator: Adobe Illustrator 24.3.0, SVG Export Plug-In . SVG Version: 6.00 Build 0)  -->
<svg version="1.1" id="layout" xmlns="http://www.w3.org/2000/svg" xmlns:xlink="http://www.w3.org/1999/xlink" x="0px" y="0px"
	 viewBox="0 0 800 800" style="enable-background:new 0 0 800 800;" xml:space="preserve">
<style type="text/css">
	.st0{fill:#FFFFFF;stroke:#FFFFFF;stroke-width:20.4869;stroke-linecap:round;stroke-linejoin:round;stroke-miterlimit:10;}
	.st1{fill:#FFFFFF;stroke:#FFFFFF;stroke-width:19.1231;stroke-linecap:round;stroke-linejoin:round;stroke-miterlimit:10;}
	.st2{fill:#1D1D1B;}
	.st3{fill:#FCA128;}
</style>
<g>
	<g>
		<path class="st0" d="M308.4,356.2h-36.6v-2.7c0-5.4,1.1-15.8-7.3-15.8c-7.1,0-7.7,6.7-7.7,12v54.3c0,1.3,0.6,8,7.7,8
			c8.4,0,7.3-10.4,7.3-16v-5.4h-6.6v-23.8h43.2V425c-12,10.8-30.1,13.3-45.6,13.3c-11,0-23.5-0.9-32.2-8.1
			c-11.3-9.5-11.8-20.7-11.8-34.1v-46.5c0-10.8,1.3-21.4,10.1-28.8c8.8-7.6,20.9-9.5,32.2-9.5c16.7,0,33.9,3.8,47.3,14.1V356.2z"/>
		<path class="st0" d="M397.5,401.6c0,10-0.3,21.2-8.4,28.2c-8.1,7-20.1,7.8-30.3,7.8c-9.3,0-22.4-0.7-30.2-6
			c-11-7.3-11-18.2-11-30.1v-23.4c0-9.7,0.1-20.2,8.5-26.8c8.1-6.4,19.1-7.3,29.2-7.3c9.1,0,22.8,0.7,30.6,5.3
			c10.8,6.6,11.5,17.4,11.5,28.8V401.6z M351.2,404.5c0,4.8-0.4,12.3,6.3,12.3c6.8,0,6.4-7.4,6.4-12.3v-25.9c0-4.8,1-13.4-6.3-13.4
			c-7.3,0-6.4,8.4-6.4,13.4V404.5z"/>
		<path class="st0" d="M485.7,401.6c0,10-0.3,21.2-8.4,28.2c-8.1,7-20.1,7.8-30.3,7.8c-9.3,0-22.4-0.7-30.2-6
			c-11-7.3-11-18.2-11-30.1v-23.4c0-9.7,0.1-20.2,8.5-26.8c8.1-6.4,19.1-7.3,29.2-7.3c9.1,0,22.8,0.7,30.6,5.3
			c10.8,6.6,11.5,17.4,11.5,28.8V401.6z M439.4,404.5c0,4.8-0.4,12.3,6.3,12.3c6.8,0,6.4-7.4,6.4-12.3v-25.9c0-4.8,1-13.4-6.3-13.4
			s-6.4,8.4-6.4,13.4V404.5z"/>
		<path class="st0" d="M541.1,430.7c-6.4,4.8-14.2,7-22.2,7c-20.1,0-25.1-12.3-25.1-31.8v-33.8c0-19.7,9.7-27.9,26.6-27.9
			c6.4,0,13.8,2,19.8,6.6v-4.8c0-4.7,0.9-9.1-3.7-12.1v-20.1h37.3v92.2c0,2.7-0.4,6.7,4,9.8v20.1h-36.8V430.7z M540.3,370.9
			c-1.7-1.1-4-1.9-6.1-1.9c-6.7,0-6.7,6-6.7,11.1v19.8c0,4.8,0,12.7,6.8,12.7c1.9,0,4.3-0.6,6-1.6V370.9z"/>
	</g>
	<g>
		<path class="st1" d="M302.7,556.9c0-4.5,0.3-7.9-0.9-10c-1.1-2.1-3.6-3.2-9.4-2.7v18.4h19.2v18.8h-19.2v12.3
			c0,3.6-0.3,7.2,3.3,9.5v17.1h-36.6v-17.1c3.6-2.3,3.3-5.9,3.3-9.5v-43.4c0-5.1-0.3-8.1-3.8-9.5v-17.1h70.2v33.2H302.7z"/>
		<path class="st1" d="M395.2,593.2c0,7.9-0.2,16.8-6.6,22.3s-15.9,6.2-24,6.2c-7.3,0-17.7-0.6-23.9-4.7c-8.7-5.7-8.7-14.4-8.7-23.8
			v-18.5c0-7.7,0.1-16,6.8-21.2c6.4-5.1,15.1-5.7,23.1-5.7c7.2,0,18,0.6,24.2,4.2c8.6,5.2,9.1,13.7,9.1,22.8V593.2z M358.6,595.4
			c0,3.8-0.3,9.7,5,9.7c5.4,0,5.1-5.9,5.1-9.7v-20.5c0-3.8,0.8-10.6-5-10.6c-5.7,0-5.1,6.6-5.1,10.6V595.4z"/>
		<path class="st1" d="M464.9,593.2c0,7.9-0.2,16.8-6.6,22.3c-6.4,5.5-15.9,6.2-24,6.2c-7.3,0-17.7-0.6-23.9-4.7
			c-8.7-5.7-8.7-14.4-8.7-23.8v-18.5c0-7.7,0.1-16,6.8-21.2c6.4-5.1,15.1-5.7,23.1-5.7c7.2,0,18,0.6,24.2,4.2
			c8.6,5.2,9.1,13.7,9.1,22.8V593.2z M428.3,595.4c0,3.8-0.3,9.7,5,9.7c5.4,0,5.1-5.9,5.1-9.7v-20.5c0-3.8,0.8-10.6-5-10.6
			s-5.1,6.6-5.1,10.6V595.4z"/>
		<path class="st1" d="M508.8,616.2c-5.1,3.8-11.3,5.5-17.6,5.5c-15.9,0-19.8-9.7-19.8-25.1v-26.7c0-15.5,7.7-22.1,21.1-22.1
			c5.1,0,10.9,1.6,15.7,5.2v-3.8c0-3.7,0.7-7.2-2.9-9.6v-15.9h29.5v72.9c0,2.1-0.3,5.3,3.2,7.8v15.9h-29.1V616.2z M508.1,568.9
			c-1.4-0.9-3.2-1.5-4.8-1.5c-5.3,0-5.3,4.7-5.3,8.8v15.7c0,3.8,0,10,5.4,10c1.5,0,3.4-0.5,4.7-1.2V568.9z"/>
	</g>
	<g>
		<path class="st2" d="M308.4,356.2h-36.6v-2.7c0-5.4,1.1-15.8-7.3-15.8c-7.1,0-7.7,6.7-7.7,12v54.3c0,1.3,0.6,8,7.7,8
			c8.4,0,7.3-10.4,7.3-16v-5.4h-6.6v-23.8h43.2V425c-12,10.8-30.1,13.3-45.6,13.3c-11,0-23.5-0.9-32.2-8.1
			c-11.3-9.5-11.8-20.7-11.8-34.1v-46.5c0-10.8,1.3-21.4,10.1-28.8c8.8-7.6,20.9-9.5,32.2-9.5c16.7,0,33.9,3.8,47.3,14.1V356.2z"/>
		<path class="st2" d="M397.5,401.6c0,10-0.3,21.2-8.4,28.2c-8.1,7-20.1,7.8-30.3,7.8c-9.3,0-22.4-0.7-30.2-6
			c-11-7.3-11-18.2-11-30.1v-23.4c0-9.7,0.1-20.2,8.5-26.8c8.1-6.4,19.1-7.3,29.2-7.3c9.1,0,22.8,0.7,30.6,5.3
			c10.8,6.6,11.5,17.4,11.5,28.8V401.6z M351.2,404.5c0,4.8-0.4,12.3,6.3,12.3c6.8,0,6.4-7.4,6.4-12.3v-25.9c0-4.8,1-13.4-6.3-13.4
			c-7.3,0-6.4,8.4-6.4,13.4V404.5z"/>
		<path class="st2" d="M485.7,401.6c0,10-0.3,21.2-8.4,28.2c-8.1,7-20.1,7.8-30.3,7.8c-9.3,0-22.4-0.7-30.2-6
			c-11-7.3-11-18.2-11-30.1v-23.4c0-9.7,0.1-20.2,8.5-26.8c8.1-6.4,19.1-7.3,29.2-7.3c9.1,0,22.8,0.7,30.6,5.3
			c10.8,6.6,11.5,17.4,11.5,28.8V401.6z M439.4,404.5c0,4.8-0.4,12.3,6.3,12.3c6.8,0,6.4-7.4,6.4-12.3v-25.9c0-4.8,1-13.4-6.3-13.4
			s-6.4,8.4-6.4,13.4V404.5z"/>
		<path class="st2" d="M541.1,430.7c-6.4,4.8-14.2,7-22.2,7c-20.1,0-25.1-12.3-25.1-31.8v-33.8c0-19.7,9.7-27.9,26.6-27.9
			c6.4,0,13.8,2,19.8,6.6v-4.8c0-4.7,0.9-9.1-3.7-12.1v-20.1h37.3v92.2c0,2.7-0.4,6.7,4,9.8v20.1h-36.8V430.7z M540.3,370.9
			c-1.7-1.1-4-1.9-6.1-1.9c-6.7,0-6.7,6-6.7,11.1v19.8c0,4.8,0,12.7,6.8,12.7c1.9,0,4.3-0.6,6-1.6V370.9z"/>
	</g>
	<g>
		<path class="st2" d="M302.7,556.9c0-4.5,0.3-7.9-0.9-10c-1.1-2.1-3.6-3.2-9.4-2.7v18.4h19.2v18.8h-19.2v12.3
			c0,3.6-0.3,7.2,3.3,9.5v17.1h-36.6v-17.1c3.6-2.3,3.3-5.9,3.3-9.5v-43.4c0-5.1-0.3-8.1-3.8-9.5v-17.1h70.2v33.2H302.7z"/>
		<path class="st2" d="M395.2,593.2c0,7.9-0.2,16.8-6.6,22.3s-15.9,6.2-24,6.2c-7.3,0-17.7-0.6-23.9-4.7c-8.7-5.7-8.7-14.4-8.7-23.8
			v-18.5c0-7.7,0.1-16,6.8-21.2c6.4-5.1,15.1-5.7,23.1-5.7c7.2,0,18,0.6,24.2,4.2c8.6,5.2,9.1,13.7,9.1,22.8V593.2z M358.6,595.4
			c0,3.8-0.3,9.7,5,9.7c5.4,0,5.1-5.9,5.1-9.7v-20.5c0-3.8,0.8-10.6-5-10.6c-5.7,0-5.1,6.6-5.1,10.6V595.4z"/>
		<path class="st2" d="M464.9,593.2c0,7.9-0.2,16.8-6.6,22.3c-6.4,5.5-15.9,6.2-24,6.2c-7.3,0-17.7-0.6-23.9-4.7
			c-8.7-5.7-8.7-14.4-8.7-23.8v-18.5c0-7.7,0.1-16,6.8-21.2c6.4-5.1,15.1-5.7,23.1-5.7c7.2,0,18,0.6,24.2,4.2
			c8.6,5.2,9.1,13.7,9.1,22.8V593.2z M428.3,595.4c0,3.8-0.3,9.7,5,9.7c5.4,0,5.1-5.9,5.1-9.7v-20.5c0-3.8,0.8-10.6-5-10.6
			s-5.1,6.6-5.1,10.6V595.4z"/>
		<path class="st2" d="M508.8,616.2c-5.1,3.8-11.3,5.5-17.6,5.5c-15.9,0-19.8-9.7-19.8-25.1v-26.7c0-15.5,7.7-22.1,21.1-22.1
			c5.1,0,10.9,1.6,15.7,5.2v-3.8c0-3.7,0.7-7.2-2.9-9.6v-15.9h29.5v72.9c0,2.1-0.3,5.3,3.2,7.8v15.9h-29.1V616.2z M508.1,568.9
			c-1.4-0.9-3.2-1.5-4.8-1.5c-5.3,0-5.3,4.7-5.3,8.8v15.7c0,3.8,0,10,5.4,10c1.5,0,3.4-0.5,4.7-1.2V568.9z"/>
	</g>
</g>
<path class="st3" d="M302.8,237.2c-53.1,23.5-95.3,65.7-118.9,118.8c-3.6,8,0.1,17.4,8.1,20.9c2.1,1,4.3,1.4,6.4,1.4
	c6.1,0,11.9-3.5,14.5-9.4c20.4-45.9,56.9-82.4,102.8-102.7c8-3.6,11.6-12.9,8.1-20.9C320.2,237.3,310.8,233.6,302.8,237.2
	L302.8,237.2z M439.2,168.2c4.6-7.5,7.4-16.2,7.4-25.6c0-27.2-22.1-49.2-49.2-49.2c-27.2,0-49.2,22.1-49.2,49.2
	c0,9.4,2.8,18.2,7.4,25.6c-137.7,20.3-243.8,139.2-243.8,282.5v34.4c0,8.8,7.1,15.9,15.9,15.9h539.5c8.8,0,15.9-7.1,15.9-15.9v-34.4
	C682.9,307.4,576.8,188.6,439.2,168.2L439.2,168.2z M651.2,469.2H143.5v-18.5c0-140,113.9-253.8,253.9-253.8
	s253.9,113.8,253.9,253.8V469.2L651.2,469.2z M667,643.8H127.6c-8.8,0-15.9,7.1-15.9,15.9c0,8.8,7.1,15.9,15.9,15.9H667
	c8.8,0,15.9-7.1,15.9-15.9C682.9,650.9,675.8,643.8,667,643.8z"/>
</svg>
